<?xml version="1.0" encoding="utf-8" standalone="no"?>
<!DOCTYPE svg PUBLIC "-//W3C//DTD SVG 1.1//EN"
  "http://www.w3.org/Graphics/SVG/1.1/DTD/svg11.dtd">
<svg xmlns:xlink="http://www.w3.org/1999/xlink" width="864pt" height="576pt" viewBox="0 0 864 576" xmlns="http://www.w3.org/2000/svg" version="1.1">
 <metadata>
  <rdf:RDF xmlns:dc="http://purl.org/dc/elements/1.1/" xmlns:cc="http://creativecommons.org/ns#" xmlns:rdf="http://www.w3.org/1999/02/22-rdf-syntax-ns#">
   <cc:Work>
    <dc:type rdf:resource="http://purl.org/dc/dcmitype/StillImage"/>
    <dc:date>2025-01-16T21:53:23.181431</dc:date>
    <dc:format>image/svg+xml</dc:format>
    <dc:creator>
     <cc:Agent>
      <dc:title>Matplotlib v3.10.0, https://matplotlib.org/</dc:title>
     </cc:Agent>
    </dc:creator>
   </cc:Work>
  </rdf:RDF>
 </metadata>
 <defs>
  <style type="text/css">*{stroke-linejoin: round; stroke-linecap: butt}</style>
 </defs>
 <g id="figure_1">
  <g id="patch_1">
   <path d="M 0 576 
L 864 576 
L 864 0 
L 0 0 
z
" style="fill: #ffffff"/>
  </g>
  <g id="axes_1">
   <g id="patch_2">
    <path d="M 60.77 484.008026 
L 750.27 484.008026 
L 750.27 42.32 
L 60.77 42.32 
z
" style="fill: #ffffff"/>
   </g>
   <g id="patch_3">
    <path d="M 92.110909 484.008026 
L 108.18317 484.008026 
L 108.18317 479.435686 
L 92.110909 479.435686 
z
" clip-path="url(#pbed30f2e8a)" style="fill: #fc8d62"/>
   </g>
   <g id="patch_4">
    <path d="M 156.399953 484.008026 
L 172.472214 484.008026 
L 172.472214 458.684298 
L 156.399953 458.684298 
z
" clip-path="url(#pbed30f2e8a)" style="fill: #fc8d62"/>
   </g>
   <g id="patch_5">
    <path d="M 220.688998 484.008026 
L 236.761259 484.008026 
L 236.761259 452.705084 
L 220.688998 452.705084 
z
" clip-path="url(#pbed30f2e8a)" style="fill: #fc8d62"/>
   </g>
   <g id="patch_6">
    <path d="M 284.978042 484.008026 
L 301.050303 484.008026 
L 301.050303 466.422104 
L 284.978042 466.422104 
z
" clip-path="url(#pbed30f2e8a)" style="fill: #fc8d62"/>
   </g>
   <g id="patch_7">
    <path d="M 349.267086 484.008026 
L 365.339347 484.008026 
L 365.339347 438.988065 
L 349.267086 438.988065 
z
" clip-path="url(#pbed30f2e8a)" style="fill: #fc8d62"/>
   </g>
   <g id="patch_8">
    <path d="M 413.556131 484.008026 
L 429.628392 484.008026 
L 429.628392 460.091172 
L 413.556131 460.091172 
z
" clip-path="url(#pbed30f2e8a)" style="fill: #fc8d62"/>
   </g>
   <g id="patch_9">
    <path d="M 477.845175 484.008026 
L 493.917436 484.008026 
L 493.917436 430.195104 
L 477.845175 430.195104 
z
" clip-path="url(#pbed30f2e8a)" style="fill: #fc8d62"/>
   </g>
   <g id="patch_10">
    <path d="M 542.134219 484.008026 
L 558.20648 484.008026 
L 558.20648 328.372613 
L 542.134219 328.372613 
z
" clip-path="url(#pbed30f2e8a)" style="fill: #fc8d62"/>
   </g>
   <g id="patch_11">
    <path d="M 606.423263 484.008026 
L 622.495524 484.008026 
L 622.495524 475.742643 
L 606.423263 475.742643 
z
" clip-path="url(#pbed30f2e8a)" style="fill: #fc8d62"/>
   </g>
   <g id="patch_12">
    <path d="M 670.712308 484.008026 
L 686.784569 484.008026 
L 686.784569 384.647565 
L 670.712308 384.647565 
z
" clip-path="url(#pbed30f2e8a)" style="fill: #fc8d62"/>
   </g>
   <g id="patch_13">
    <path d="M 108.18317 484.008026 
L 124.255431 484.008026 
L 124.255431 472.577177 
L 108.18317 472.577177 
z
" clip-path="url(#pbed30f2e8a)" style="fill: #8da0cb"/>
   </g>
   <g id="patch_14">
    <path d="M 172.472214 484.008026 
L 188.544476 484.008026 
L 188.544476 414.719492 
L 172.472214 414.719492 
z
" clip-path="url(#pbed30f2e8a)" style="fill: #8da0cb"/>
   </g>
   <g id="patch_15">
    <path d="M 236.761259 484.008026 
L 252.83352 484.008026 
L 252.83352 341.913773 
L 236.761259 341.913773 
z
" clip-path="url(#pbed30f2e8a)" style="fill: #8da0cb"/>
   </g>
   <g id="patch_16">
    <path d="M 301.050303 484.008026 
L 317.122564 484.008026 
L 317.122564 411.378167 
L 301.050303 411.378167 
z
" clip-path="url(#pbed30f2e8a)" style="fill: #8da0cb"/>
   </g>
   <g id="patch_17">
    <path d="M 365.339347 484.008026 
L 381.411608 484.008026 
L 381.411608 326.614021 
L 365.339347 326.614021 
z
" clip-path="url(#pbed30f2e8a)" style="fill: #8da0cb"/>
   </g>
   <g id="patch_18">
    <path d="M 429.628392 484.008026 
L 445.700653 484.008026 
L 445.700653 407.157545 
L 429.628392 407.157545 
z
" clip-path="url(#pbed30f2e8a)" style="fill: #8da0cb"/>
   </g>
   <g id="patch_19">
    <path d="M 493.917436 484.008026 
L 509.989697 484.008026 
L 509.989697 248.884244 
L 493.917436 248.884244 
z
" clip-path="url(#pbed30f2e8a)" style="fill: #8da0cb"/>
   </g>
   <g id="patch_20">
    <path d="M 558.20648 484.008026 
L 574.278741 484.008026 
L 574.278741 63.352763 
L 558.20648 63.352763 
z
" clip-path="url(#pbed30f2e8a)" style="fill: #8da0cb"/>
   </g>
   <g id="patch_21">
    <path d="M 622.495524 484.008026 
L 638.567786 484.008026 
L 638.567786 466.949681 
L 622.495524 466.949681 
z
" clip-path="url(#pbed30f2e8a)" style="fill: #8da0cb"/>
   </g>
   <g id="patch_22">
    <path d="M 686.784569 484.008026 
L 702.85683 484.008026 
L 702.85683 221.977783 
L 686.784569 221.977783 
z
" clip-path="url(#pbed30f2e8a)" style="fill: #8da0cb"/>
   </g>
   <g id="patch_23">
    <path d="M 124.255431 484.008026 
L 140.327692 484.008026 
L 140.327692 483.304589 
L 124.255431 483.304589 
z
" clip-path="url(#pbed30f2e8a)" style="fill: #66c2a5"/>
   </g>
   <g id="patch_24">
    <path d="M 188.544476 484.008026 
L 204.616737 484.008026 
L 204.616737 482.601152 
L 188.544476 482.601152 
z
" clip-path="url(#pbed30f2e8a)" style="fill: #66c2a5"/>
   </g>
   <g id="patch_25">
    <path d="M 252.83352 484.008026 
L 268.905781 484.008026 
L 268.905781 483.480448 
L 252.83352 483.480448 
z
" clip-path="url(#pbed30f2e8a)" style="fill: #66c2a5"/>
   </g>
   <g id="patch_26">
    <path d="M 317.122564 484.008026 
L 333.194825 484.008026 
L 333.194825 479.435686 
L 317.122564 479.435686 
z
" clip-path="url(#pbed30f2e8a)" style="fill: #66c2a5"/>
   </g>
   <g id="patch_27">
    <path d="M 381.411608 484.008026 
L 397.483869 484.008026 
L 397.483869 481.545997 
L 381.411608 481.545997 
z
" clip-path="url(#pbed30f2e8a)" style="fill: #66c2a5"/>
   </g>
   <g id="patch_28">
    <path d="M 445.700653 484.008026 
L 461.772914 484.008026 
L 461.772914 482.425293 
L 445.700653 482.425293 
z
" clip-path="url(#pbed30f2e8a)" style="fill: #66c2a5"/>
   </g>
   <g id="patch_29">
    <path d="M 509.989697 484.008026 
L 526.061958 484.008026 
L 526.061958 482.425293 
L 509.989697 482.425293 
z
" clip-path="url(#pbed30f2e8a)" style="fill: #66c2a5"/>
   </g>
   <g id="patch_30">
    <path d="M 574.278741 484.008026 
L 590.351002 484.008026 
L 590.351002 462.904919 
L 574.278741 462.904919 
z
" clip-path="url(#pbed30f2e8a)" style="fill: #66c2a5"/>
   </g>
   <g id="patch_31">
    <path d="M 638.567786 484.008026 
L 654.640047 484.008026 
L 654.640047 483.480448 
L 638.567786 483.480448 
z
" clip-path="url(#pbed30f2e8a)" style="fill: #66c2a5"/>
   </g>
   <g id="patch_32">
    <path d="M 702.85683 484.008026 
L 718.929091 484.008026 
L 718.929091 470.818584 
L 702.85683 470.818584 
z
" clip-path="url(#pbed30f2e8a)" style="fill: #66c2a5"/>
   </g>
   <g id="matplotlib.axis_1">
    <g id="xtick_1">
     <g id="line2d_1">
      <defs>
       <path id="m2520ca46d5" d="M 0 0 
L 0 3.5 
" style="stroke: #000000; stroke-width: 0.8"/>
      </defs>
      <g>
       <use xlink:href="#m2520ca46d5" x="116.219301" y="484.008026" style="stroke: #000000; stroke-width: 0.8"/>
      </g>
     </g>
     <g id="text_1">
      <!-- Beauty -->
      <g transform="translate(84.485674 527.424467) rotate(-45) scale(0.12 -0.12)">
       <defs>
        <path id="DejaVuSans-42" d="M 1259 2228 
L 1259 519 
L 2272 519 
Q 2781 519 3026 730 
Q 3272 941 3272 1375 
Q 3272 1813 3026 2020 
Q 2781 2228 2272 2228 
L 1259 2228 
z
M 1259 4147 
L 1259 2741 
L 2194 2741 
Q 2656 2741 2882 2914 
Q 3109 3088 3109 3444 
Q 3109 3797 2882 3972 
Q 2656 4147 2194 4147 
L 1259 4147 
z
M 628 4666 
L 2241 4666 
Q 2963 4666 3353 4366 
Q 3744 4066 3744 3513 
Q 3744 3084 3544 2831 
Q 3344 2578 2956 2516 
Q 3422 2416 3680 2098 
Q 3938 1781 3938 1306 
Q 3938 681 3513 340 
Q 3088 0 2303 0 
L 628 0 
L 628 4666 
z
" transform="scale(0.015625)"/>
        <path id="DejaVuSans-65" d="M 3597 1894 
L 3597 1613 
L 953 1613 
Q 991 1019 1311 708 
Q 1631 397 2203 397 
Q 2534 397 2845 478 
Q 3156 559 3463 722 
L 3463 178 
Q 3153 47 2828 -22 
Q 2503 -91 2169 -91 
Q 1331 -91 842 396 
Q 353 884 353 1716 
Q 353 2575 817 3079 
Q 1281 3584 2069 3584 
Q 2775 3584 3186 3129 
Q 3597 2675 3597 1894 
z
M 3022 2063 
Q 3016 2534 2758 2815 
Q 2500 3097 2075 3097 
Q 1594 3097 1305 2825 
Q 1016 2553 972 2059 
L 3022 2063 
z
" transform="scale(0.015625)"/>
        <path id="DejaVuSans-61" d="M 2194 1759 
Q 1497 1759 1228 1600 
Q 959 1441 959 1056 
Q 959 750 1161 570 
Q 1363 391 1709 391 
Q 2188 391 2477 730 
Q 2766 1069 2766 1631 
L 2766 1759 
L 2194 1759 
z
M 3341 1997 
L 3341 0 
L 2766 0 
L 2766 531 
Q 2569 213 2275 61 
Q 1981 -91 1556 -91 
Q 1019 -91 701 211 
Q 384 513 384 1019 
Q 384 1609 779 1909 
Q 1175 2209 1959 2209 
L 2766 2209 
L 2766 2266 
Q 2766 2663 2505 2880 
Q 2244 3097 1772 3097 
Q 1472 3097 1187 3025 
Q 903 2953 641 2809 
L 641 3341 
Q 956 3463 1253 3523 
Q 1550 3584 1831 3584 
Q 2591 3584 2966 3190 
Q 3341 2797 3341 1997 
z
" transform="scale(0.015625)"/>
        <path id="DejaVuSans-75" d="M 544 1381 
L 544 3500 
L 1119 3500 
L 1119 1403 
Q 1119 906 1312 657 
Q 1506 409 1894 409 
Q 2359 409 2629 706 
Q 2900 1003 2900 1516 
L 2900 3500 
L 3475 3500 
L 3475 0 
L 2900 0 
L 2900 538 
Q 2691 219 2414 64 
Q 2138 -91 1772 -91 
Q 1169 -91 856 284 
Q 544 659 544 1381 
z
M 1991 3584 
L 1991 3584 
z
" transform="scale(0.015625)"/>
        <path id="DejaVuSans-74" d="M 1172 4494 
L 1172 3500 
L 2356 3500 
L 2356 3053 
L 1172 3053 
L 1172 1153 
Q 1172 725 1289 603 
Q 1406 481 1766 481 
L 2356 481 
L 2356 0 
L 1766 0 
Q 1100 0 847 248 
Q 594 497 594 1153 
L 594 3053 
L 172 3053 
L 172 3500 
L 594 3500 
L 594 4494 
L 1172 4494 
z
" transform="scale(0.015625)"/>
        <path id="DejaVuSans-79" d="M 2059 -325 
Q 1816 -950 1584 -1140 
Q 1353 -1331 966 -1331 
L 506 -1331 
L 506 -850 
L 844 -850 
Q 1081 -850 1212 -737 
Q 1344 -625 1503 -206 
L 1606 56 
L 191 3500 
L 800 3500 
L 1894 763 
L 2988 3500 
L 3597 3500 
L 2059 -325 
z
" transform="scale(0.015625)"/>
       </defs>
       <use xlink:href="#DejaVuSans-42"/>
       <use xlink:href="#DejaVuSans-65" transform="translate(68.603516 0)"/>
       <use xlink:href="#DejaVuSans-61" transform="translate(130.126953 0)"/>
       <use xlink:href="#DejaVuSans-75" transform="translate(191.40625 0)"/>
       <use xlink:href="#DejaVuSans-74" transform="translate(254.785156 0)"/>
       <use xlink:href="#DejaVuSans-79" transform="translate(293.994141 0)"/>
      </g>
     </g>
    </g>
    <g id="xtick_2">
     <g id="line2d_2">
      <g>
       <use xlink:href="#m2520ca46d5" x="180.508345" y="484.008026" style="stroke: #000000; stroke-width: 0.8"/>
      </g>
     </g>
     <g id="text_2">
      <!-- Climate -->
      <g transform="translate(146.091248 530.107937) rotate(-45) scale(0.12 -0.12)">
       <defs>
        <path id="DejaVuSans-43" d="M 4122 4306 
L 4122 3641 
Q 3803 3938 3442 4084 
Q 3081 4231 2675 4231 
Q 1875 4231 1450 3742 
Q 1025 3253 1025 2328 
Q 1025 1406 1450 917 
Q 1875 428 2675 428 
Q 3081 428 3442 575 
Q 3803 722 4122 1019 
L 4122 359 
Q 3791 134 3420 21 
Q 3050 -91 2638 -91 
Q 1578 -91 968 557 
Q 359 1206 359 2328 
Q 359 3453 968 4101 
Q 1578 4750 2638 4750 
Q 3056 4750 3426 4639 
Q 3797 4528 4122 4306 
z
" transform="scale(0.015625)"/>
        <path id="DejaVuSans-6c" d="M 603 4863 
L 1178 4863 
L 1178 0 
L 603 0 
L 603 4863 
z
" transform="scale(0.015625)"/>
        <path id="DejaVuSans-69" d="M 603 3500 
L 1178 3500 
L 1178 0 
L 603 0 
L 603 3500 
z
M 603 4863 
L 1178 4863 
L 1178 4134 
L 603 4134 
L 603 4863 
z
" transform="scale(0.015625)"/>
        <path id="DejaVuSans-6d" d="M 3328 2828 
Q 3544 3216 3844 3400 
Q 4144 3584 4550 3584 
Q 5097 3584 5394 3201 
Q 5691 2819 5691 2113 
L 5691 0 
L 5113 0 
L 5113 2094 
Q 5113 2597 4934 2840 
Q 4756 3084 4391 3084 
Q 3944 3084 3684 2787 
Q 3425 2491 3425 1978 
L 3425 0 
L 2847 0 
L 2847 2094 
Q 2847 2600 2669 2842 
Q 2491 3084 2119 3084 
Q 1678 3084 1418 2786 
Q 1159 2488 1159 1978 
L 1159 0 
L 581 0 
L 581 3500 
L 1159 3500 
L 1159 2956 
Q 1356 3278 1631 3431 
Q 1906 3584 2284 3584 
Q 2666 3584 2933 3390 
Q 3200 3197 3328 2828 
z
" transform="scale(0.015625)"/>
       </defs>
       <use xlink:href="#DejaVuSans-43"/>
       <use xlink:href="#DejaVuSans-6c" transform="translate(69.824219 0)"/>
       <use xlink:href="#DejaVuSans-69" transform="translate(97.607422 0)"/>
       <use xlink:href="#DejaVuSans-6d" transform="translate(125.390625 0)"/>
       <use xlink:href="#DejaVuSans-61" transform="translate(222.802734 0)"/>
       <use xlink:href="#DejaVuSans-74" transform="translate(284.082031 0)"/>
       <use xlink:href="#DejaVuSans-65" transform="translate(323.291016 0)"/>
      </g>
     </g>
    </g>
    <g id="xtick_3">
     <g id="line2d_3">
      <g>
       <use xlink:href="#m2520ca46d5" x="244.797389" y="484.008026" style="stroke: #000000; stroke-width: 0.8"/>
      </g>
     </g>
     <g id="text_3">
      <!-- Crime -->
      <g transform="translate(217.775746 522.712484) rotate(-45) scale(0.12 -0.12)">
       <defs>
        <path id="DejaVuSans-72" d="M 2631 2963 
Q 2534 3019 2420 3045 
Q 2306 3072 2169 3072 
Q 1681 3072 1420 2755 
Q 1159 2438 1159 1844 
L 1159 0 
L 581 0 
L 581 3500 
L 1159 3500 
L 1159 2956 
Q 1341 3275 1631 3429 
Q 1922 3584 2338 3584 
Q 2397 3584 2469 3576 
Q 2541 3569 2628 3553 
L 2631 2963 
z
" transform="scale(0.015625)"/>
       </defs>
       <use xlink:href="#DejaVuSans-43"/>
       <use xlink:href="#DejaVuSans-72" transform="translate(69.824219 0)"/>
       <use xlink:href="#DejaVuSans-69" transform="translate(110.9375 0)"/>
       <use xlink:href="#DejaVuSans-6d" transform="translate(138.720703 0)"/>
       <use xlink:href="#DejaVuSans-65" transform="translate(236.132812 0)"/>
      </g>
     </g>
    </g>
    <g id="xtick_4">
     <g id="line2d_4">
      <g>
       <use xlink:href="#m2520ca46d5" x="309.086434" y="484.008026" style="stroke: #000000; stroke-width: 0.8"/>
      </g>
     </g>
     <g id="text_4">
      <!-- Culture -->
      <g transform="translate(276.439313 528.337961) rotate(-45) scale(0.12 -0.12)">
       <use xlink:href="#DejaVuSans-43"/>
       <use xlink:href="#DejaVuSans-75" transform="translate(69.824219 0)"/>
       <use xlink:href="#DejaVuSans-6c" transform="translate(133.203125 0)"/>
       <use xlink:href="#DejaVuSans-74" transform="translate(160.986328 0)"/>
       <use xlink:href="#DejaVuSans-75" transform="translate(200.195312 0)"/>
       <use xlink:href="#DejaVuSans-72" transform="translate(263.574219 0)"/>
       <use xlink:href="#DejaVuSans-65" transform="translate(302.4375 0)"/>
      </g>
     </g>
    </g>
    <g id="xtick_5">
     <g id="line2d_5">
      <g>
       <use xlink:href="#m2520ca46d5" x="373.375478" y="484.008026" style="stroke: #000000; stroke-width: 0.8"/>
      </g>
     </g>
     <g id="text_5">
      <!-- Economy -->
      <g transform="translate(332.534758 536.531561) rotate(-45) scale(0.12 -0.12)">
       <defs>
        <path id="DejaVuSans-45" d="M 628 4666 
L 3578 4666 
L 3578 4134 
L 1259 4134 
L 1259 2753 
L 3481 2753 
L 3481 2222 
L 1259 2222 
L 1259 531 
L 3634 531 
L 3634 0 
L 628 0 
L 628 4666 
z
" transform="scale(0.015625)"/>
        <path id="DejaVuSans-63" d="M 3122 3366 
L 3122 2828 
Q 2878 2963 2633 3030 
Q 2388 3097 2138 3097 
Q 1578 3097 1268 2742 
Q 959 2388 959 1747 
Q 959 1106 1268 751 
Q 1578 397 2138 397 
Q 2388 397 2633 464 
Q 2878 531 3122 666 
L 3122 134 
Q 2881 22 2623 -34 
Q 2366 -91 2075 -91 
Q 1284 -91 818 406 
Q 353 903 353 1747 
Q 353 2603 823 3093 
Q 1294 3584 2113 3584 
Q 2378 3584 2631 3529 
Q 2884 3475 3122 3366 
z
" transform="scale(0.015625)"/>
        <path id="DejaVuSans-6f" d="M 1959 3097 
Q 1497 3097 1228 2736 
Q 959 2375 959 1747 
Q 959 1119 1226 758 
Q 1494 397 1959 397 
Q 2419 397 2687 759 
Q 2956 1122 2956 1747 
Q 2956 2369 2687 2733 
Q 2419 3097 1959 3097 
z
M 1959 3584 
Q 2709 3584 3137 3096 
Q 3566 2609 3566 1747 
Q 3566 888 3137 398 
Q 2709 -91 1959 -91 
Q 1206 -91 779 398 
Q 353 888 353 1747 
Q 353 2609 779 3096 
Q 1206 3584 1959 3584 
z
" transform="scale(0.015625)"/>
        <path id="DejaVuSans-6e" d="M 3513 2113 
L 3513 0 
L 2938 0 
L 2938 2094 
Q 2938 2591 2744 2837 
Q 2550 3084 2163 3084 
Q 1697 3084 1428 2787 
Q 1159 2491 1159 1978 
L 1159 0 
L 581 0 
L 581 3500 
L 1159 3500 
L 1159 2956 
Q 1366 3272 1645 3428 
Q 1925 3584 2291 3584 
Q 2894 3584 3203 3211 
Q 3513 2838 3513 2113 
z
" transform="scale(0.015625)"/>
       </defs>
       <use xlink:href="#DejaVuSans-45"/>
       <use xlink:href="#DejaVuSans-63" transform="translate(63.183594 0)"/>
       <use xlink:href="#DejaVuSans-6f" transform="translate(118.164062 0)"/>
       <use xlink:href="#DejaVuSans-6e" transform="translate(179.345703 0)"/>
       <use xlink:href="#DejaVuSans-6f" transform="translate(242.724609 0)"/>
       <use xlink:href="#DejaVuSans-6d" transform="translate(303.90625 0)"/>
       <use xlink:href="#DejaVuSans-79" transform="translate(401.318359 0)"/>
      </g>
     </g>
    </g>
    <g id="xtick_6">
     <g id="line2d_6">
      <g>
       <use xlink:href="#m2520ca46d5" x="437.664522" y="484.008026" style="stroke: #000000; stroke-width: 0.8"/>
      </g>
     </g>
     <g id="text_6">
      <!-- Health -->
      <g transform="translate(408.036306 525.319057) rotate(-45) scale(0.12 -0.12)">
       <defs>
        <path id="DejaVuSans-48" d="M 628 4666 
L 1259 4666 
L 1259 2753 
L 3553 2753 
L 3553 4666 
L 4184 4666 
L 4184 0 
L 3553 0 
L 3553 2222 
L 1259 2222 
L 1259 0 
L 628 0 
L 628 4666 
z
" transform="scale(0.015625)"/>
        <path id="DejaVuSans-68" d="M 3513 2113 
L 3513 0 
L 2938 0 
L 2938 2094 
Q 2938 2591 2744 2837 
Q 2550 3084 2163 3084 
Q 1697 3084 1428 2787 
Q 1159 2491 1159 1978 
L 1159 0 
L 581 0 
L 581 4863 
L 1159 4863 
L 1159 2956 
Q 1366 3272 1645 3428 
Q 1925 3584 2291 3584 
Q 2894 3584 3203 3211 
Q 3513 2838 3513 2113 
z
" transform="scale(0.015625)"/>
       </defs>
       <use xlink:href="#DejaVuSans-48"/>
       <use xlink:href="#DejaVuSans-65" transform="translate(75.195312 0)"/>
       <use xlink:href="#DejaVuSans-61" transform="translate(136.71875 0)"/>
       <use xlink:href="#DejaVuSans-6c" transform="translate(197.998047 0)"/>
       <use xlink:href="#DejaVuSans-74" transform="translate(225.78125 0)"/>
       <use xlink:href="#DejaVuSans-68" transform="translate(264.990234 0)"/>
      </g>
     </g>
    </g>
    <g id="xtick_7">
     <g id="line2d_7">
      <g>
       <use xlink:href="#m2520ca46d5" x="501.953566" y="484.008026" style="stroke: #000000; stroke-width: 0.8"/>
      </g>
     </g>
     <g id="text_7">
      <!-- Politics -->
      <g transform="translate(470.703866 526.940541) rotate(-45) scale(0.12 -0.12)">
       <defs>
        <path id="DejaVuSans-50" d="M 1259 4147 
L 1259 2394 
L 2053 2394 
Q 2494 2394 2734 2622 
Q 2975 2850 2975 3272 
Q 2975 3691 2734 3919 
Q 2494 4147 2053 4147 
L 1259 4147 
z
M 628 4666 
L 2053 4666 
Q 2838 4666 3239 4311 
Q 3641 3956 3641 3272 
Q 3641 2581 3239 2228 
Q 2838 1875 2053 1875 
L 1259 1875 
L 1259 0 
L 628 0 
L 628 4666 
z
" transform="scale(0.015625)"/>
        <path id="DejaVuSans-73" d="M 2834 3397 
L 2834 2853 
Q 2591 2978 2328 3040 
Q 2066 3103 1784 3103 
Q 1356 3103 1142 2972 
Q 928 2841 928 2578 
Q 928 2378 1081 2264 
Q 1234 2150 1697 2047 
L 1894 2003 
Q 2506 1872 2764 1633 
Q 3022 1394 3022 966 
Q 3022 478 2636 193 
Q 2250 -91 1575 -91 
Q 1294 -91 989 -36 
Q 684 19 347 128 
L 347 722 
Q 666 556 975 473 
Q 1284 391 1588 391 
Q 1994 391 2212 530 
Q 2431 669 2431 922 
Q 2431 1156 2273 1281 
Q 2116 1406 1581 1522 
L 1381 1569 
Q 847 1681 609 1914 
Q 372 2147 372 2553 
Q 372 3047 722 3315 
Q 1072 3584 1716 3584 
Q 2034 3584 2315 3537 
Q 2597 3491 2834 3397 
z
" transform="scale(0.015625)"/>
       </defs>
       <use xlink:href="#DejaVuSans-50"/>
       <use xlink:href="#DejaVuSans-6f" transform="translate(56.677734 0)"/>
       <use xlink:href="#DejaVuSans-6c" transform="translate(117.859375 0)"/>
       <use xlink:href="#DejaVuSans-69" transform="translate(145.642578 0)"/>
       <use xlink:href="#DejaVuSans-74" transform="translate(173.425781 0)"/>
       <use xlink:href="#DejaVuSans-69" transform="translate(212.634766 0)"/>
       <use xlink:href="#DejaVuSans-63" transform="translate(240.417969 0)"/>
       <use xlink:href="#DejaVuSans-73" transform="translate(295.398438 0)"/>
      </g>
     </g>
    </g>
    <g id="xtick_8">
     <g id="line2d_8">
      <g>
       <use xlink:href="#m2520ca46d5" x="566.242611" y="484.008026" style="stroke: #000000; stroke-width: 0.8"/>
      </g>
     </g>
     <g id="text_8">
      <!-- Sports -->
      <g transform="translate(537.277307 524.656144) rotate(-45) scale(0.12 -0.12)">
       <defs>
        <path id="DejaVuSans-53" d="M 3425 4513 
L 3425 3897 
Q 3066 4069 2747 4153 
Q 2428 4238 2131 4238 
Q 1616 4238 1336 4038 
Q 1056 3838 1056 3469 
Q 1056 3159 1242 3001 
Q 1428 2844 1947 2747 
L 2328 2669 
Q 3034 2534 3370 2195 
Q 3706 1856 3706 1288 
Q 3706 609 3251 259 
Q 2797 -91 1919 -91 
Q 1588 -91 1214 -16 
Q 841 59 441 206 
L 441 856 
Q 825 641 1194 531 
Q 1563 422 1919 422 
Q 2459 422 2753 634 
Q 3047 847 3047 1241 
Q 3047 1584 2836 1778 
Q 2625 1972 2144 2069 
L 1759 2144 
Q 1053 2284 737 2584 
Q 422 2884 422 3419 
Q 422 4038 858 4394 
Q 1294 4750 2059 4750 
Q 2388 4750 2728 4690 
Q 3069 4631 3425 4513 
z
" transform="scale(0.015625)"/>
        <path id="DejaVuSans-70" d="M 1159 525 
L 1159 -1331 
L 581 -1331 
L 581 3500 
L 1159 3500 
L 1159 2969 
Q 1341 3281 1617 3432 
Q 1894 3584 2278 3584 
Q 2916 3584 3314 3078 
Q 3713 2572 3713 1747 
Q 3713 922 3314 415 
Q 2916 -91 2278 -91 
Q 1894 -91 1617 61 
Q 1341 213 1159 525 
z
M 3116 1747 
Q 3116 2381 2855 2742 
Q 2594 3103 2138 3103 
Q 1681 3103 1420 2742 
Q 1159 2381 1159 1747 
Q 1159 1113 1420 752 
Q 1681 391 2138 391 
Q 2594 391 2855 752 
Q 3116 1113 3116 1747 
z
" transform="scale(0.015625)"/>
       </defs>
       <use xlink:href="#DejaVuSans-53"/>
       <use xlink:href="#DejaVuSans-70" transform="translate(63.476562 0)"/>
       <use xlink:href="#DejaVuSans-6f" transform="translate(126.953125 0)"/>
       <use xlink:href="#DejaVuSans-72" transform="translate(188.134766 0)"/>
       <use xlink:href="#DejaVuSans-74" transform="translate(229.248047 0)"/>
       <use xlink:href="#DejaVuSans-73" transform="translate(268.457031 0)"/>
      </g>
     </g>
    </g>
    <g id="xtick_9">
     <g id="line2d_9">
      <g>
       <use xlink:href="#m2520ca46d5" x="630.531655" y="484.008026" style="stroke: #000000; stroke-width: 0.8"/>
      </g>
     </g>
     <g id="text_9">
      <!-- Technology -->
      <g transform="translate(581.234822 544.987674) rotate(-45) scale(0.12 -0.12)">
       <defs>
        <path id="DejaVuSans-54" d="M -19 4666 
L 3928 4666 
L 3928 4134 
L 2272 4134 
L 2272 0 
L 1638 0 
L 1638 4134 
L -19 4134 
L -19 4666 
z
" transform="scale(0.015625)"/>
        <path id="DejaVuSans-67" d="M 2906 1791 
Q 2906 2416 2648 2759 
Q 2391 3103 1925 3103 
Q 1463 3103 1205 2759 
Q 947 2416 947 1791 
Q 947 1169 1205 825 
Q 1463 481 1925 481 
Q 2391 481 2648 825 
Q 2906 1169 2906 1791 
z
M 3481 434 
Q 3481 -459 3084 -895 
Q 2688 -1331 1869 -1331 
Q 1566 -1331 1297 -1286 
Q 1028 -1241 775 -1147 
L 775 -588 
Q 1028 -725 1275 -790 
Q 1522 -856 1778 -856 
Q 2344 -856 2625 -561 
Q 2906 -266 2906 331 
L 2906 616 
Q 2728 306 2450 153 
Q 2172 0 1784 0 
Q 1141 0 747 490 
Q 353 981 353 1791 
Q 353 2603 747 3093 
Q 1141 3584 1784 3584 
Q 2172 3584 2450 3431 
Q 2728 3278 2906 2969 
L 2906 3500 
L 3481 3500 
L 3481 434 
z
" transform="scale(0.015625)"/>
       </defs>
       <use xlink:href="#DejaVuSans-54"/>
       <use xlink:href="#DejaVuSans-65" transform="translate(44.083984 0)"/>
       <use xlink:href="#DejaVuSans-63" transform="translate(105.607422 0)"/>
       <use xlink:href="#DejaVuSans-68" transform="translate(160.587891 0)"/>
       <use xlink:href="#DejaVuSans-6e" transform="translate(223.966797 0)"/>
       <use xlink:href="#DejaVuSans-6f" transform="translate(287.345703 0)"/>
       <use xlink:href="#DejaVuSans-6c" transform="translate(348.527344 0)"/>
       <use xlink:href="#DejaVuSans-6f" transform="translate(376.310547 0)"/>
       <use xlink:href="#DejaVuSans-67" transform="translate(437.492188 0)"/>
       <use xlink:href="#DejaVuSans-79" transform="translate(500.96875 0)"/>
      </g>
     </g>
    </g>
    <g id="xtick_10">
     <g id="line2d_10">
      <g>
       <use xlink:href="#m2520ca46d5" x="694.820699" y="484.008026" style="stroke: #000000; stroke-width: 0.8"/>
      </g>
     </g>
     <g id="text_10">
      <!-- other -->
      <g transform="translate(670.450706 520.060834) rotate(-45) scale(0.12 -0.12)">
       <use xlink:href="#DejaVuSans-6f"/>
       <use xlink:href="#DejaVuSans-74" transform="translate(61.181641 0)"/>
       <use xlink:href="#DejaVuSans-68" transform="translate(100.390625 0)"/>
       <use xlink:href="#DejaVuSans-65" transform="translate(163.769531 0)"/>
       <use xlink:href="#DejaVuSans-72" transform="translate(225.292969 0)"/>
      </g>
     </g>
    </g>
    <g id="text_11">
     <!-- Topic -->
     <g transform="translate(387.913906 561.39016) scale(0.14 -0.14)">
      <use xlink:href="#DejaVuSans-54"/>
      <use xlink:href="#DejaVuSans-6f" transform="translate(44.083984 0)"/>
      <use xlink:href="#DejaVuSans-70" transform="translate(105.265625 0)"/>
      <use xlink:href="#DejaVuSans-69" transform="translate(168.742188 0)"/>
      <use xlink:href="#DejaVuSans-63" transform="translate(196.525391 0)"/>
     </g>
    </g>
   </g>
   <g id="matplotlib.axis_2">
    <g id="ytick_1">
     <g id="line2d_11">
      <defs>
       <path id="m5379ebd223" d="M 0 0 
L -3.5 0 
" style="stroke: #000000; stroke-width: 0.8"/>
      </defs>
      <g>
       <use xlink:href="#m5379ebd223" x="60.77" y="484.008026" style="stroke: #000000; stroke-width: 0.8"/>
      </g>
     </g>
     <g id="text_12">
      <!-- 0 -->
      <g transform="translate(47.4075 487.807245) scale(0.1 -0.1)">
       <defs>
        <path id="DejaVuSans-30" d="M 2034 4250 
Q 1547 4250 1301 3770 
Q 1056 3291 1056 2328 
Q 1056 1369 1301 889 
Q 1547 409 2034 409 
Q 2525 409 2770 889 
Q 3016 1369 3016 2328 
Q 3016 3291 2770 3770 
Q 2525 4250 2034 4250 
z
M 2034 4750 
Q 2819 4750 3233 4129 
Q 3647 3509 3647 2328 
Q 3647 1150 3233 529 
Q 2819 -91 2034 -91 
Q 1250 -91 836 529 
Q 422 1150 422 2328 
Q 422 3509 836 4129 
Q 1250 4750 2034 4750 
z
" transform="scale(0.015625)"/>
       </defs>
       <use xlink:href="#DejaVuSans-30"/>
      </g>
     </g>
    </g>
    <g id="ytick_2">
     <g id="line2d_12">
      <g>
       <use xlink:href="#m5379ebd223" x="60.77" y="396.078414" style="stroke: #000000; stroke-width: 0.8"/>
      </g>
     </g>
     <g id="text_13">
      <!-- 500 -->
      <g transform="translate(34.6825 399.877633) scale(0.1 -0.1)">
       <defs>
        <path id="DejaVuSans-35" d="M 691 4666 
L 3169 4666 
L 3169 4134 
L 1269 4134 
L 1269 2991 
Q 1406 3038 1543 3061 
Q 1681 3084 1819 3084 
Q 2600 3084 3056 2656 
Q 3513 2228 3513 1497 
Q 3513 744 3044 326 
Q 2575 -91 1722 -91 
Q 1428 -91 1123 -41 
Q 819 9 494 109 
L 494 744 
Q 775 591 1075 516 
Q 1375 441 1709 441 
Q 2250 441 2565 725 
Q 2881 1009 2881 1497 
Q 2881 1984 2565 2268 
Q 2250 2553 1709 2553 
Q 1456 2553 1204 2497 
Q 953 2441 691 2322 
L 691 4666 
z
" transform="scale(0.015625)"/>
       </defs>
       <use xlink:href="#DejaVuSans-35"/>
       <use xlink:href="#DejaVuSans-30" transform="translate(63.623047 0)"/>
       <use xlink:href="#DejaVuSans-30" transform="translate(127.246094 0)"/>
      </g>
     </g>
    </g>
    <g id="ytick_3">
     <g id="line2d_13">
      <g>
       <use xlink:href="#m5379ebd223" x="60.77" y="308.148802" style="stroke: #000000; stroke-width: 0.8"/>
      </g>
     </g>
     <g id="text_14">
      <!-- 1000 -->
      <g transform="translate(28.32 311.948021) scale(0.1 -0.1)">
       <defs>
        <path id="DejaVuSans-31" d="M 794 531 
L 1825 531 
L 1825 4091 
L 703 3866 
L 703 4441 
L 1819 4666 
L 2450 4666 
L 2450 531 
L 3481 531 
L 3481 0 
L 794 0 
L 794 531 
z
" transform="scale(0.015625)"/>
       </defs>
       <use xlink:href="#DejaVuSans-31"/>
       <use xlink:href="#DejaVuSans-30" transform="translate(63.623047 0)"/>
       <use xlink:href="#DejaVuSans-30" transform="translate(127.246094 0)"/>
       <use xlink:href="#DejaVuSans-30" transform="translate(190.869141 0)"/>
      </g>
     </g>
    </g>
    <g id="ytick_4">
     <g id="line2d_14">
      <g>
       <use xlink:href="#m5379ebd223" x="60.77" y="220.219191" style="stroke: #000000; stroke-width: 0.8"/>
      </g>
     </g>
     <g id="text_15">
      <!-- 1500 -->
      <g transform="translate(28.32 224.018409) scale(0.1 -0.1)">
       <use xlink:href="#DejaVuSans-31"/>
       <use xlink:href="#DejaVuSans-35" transform="translate(63.623047 0)"/>
       <use xlink:href="#DejaVuSans-30" transform="translate(127.246094 0)"/>
       <use xlink:href="#DejaVuSans-30" transform="translate(190.869141 0)"/>
      </g>
     </g>
    </g>
    <g id="ytick_5">
     <g id="line2d_15">
      <g>
       <use xlink:href="#m5379ebd223" x="60.77" y="132.289579" style="stroke: #000000; stroke-width: 0.8"/>
      </g>
     </g>
     <g id="text_16">
      <!-- 2000 -->
      <g transform="translate(28.32 136.088798) scale(0.1 -0.1)">
       <defs>
        <path id="DejaVuSans-32" d="M 1228 531 
L 3431 531 
L 3431 0 
L 469 0 
L 469 531 
Q 828 903 1448 1529 
Q 2069 2156 2228 2338 
Q 2531 2678 2651 2914 
Q 2772 3150 2772 3378 
Q 2772 3750 2511 3984 
Q 2250 4219 1831 4219 
Q 1534 4219 1204 4116 
Q 875 4013 500 3803 
L 500 4441 
Q 881 4594 1212 4672 
Q 1544 4750 1819 4750 
Q 2544 4750 2975 4387 
Q 3406 4025 3406 3419 
Q 3406 3131 3298 2873 
Q 3191 2616 2906 2266 
Q 2828 2175 2409 1742 
Q 1991 1309 1228 531 
z
" transform="scale(0.015625)"/>
       </defs>
       <use xlink:href="#DejaVuSans-32"/>
       <use xlink:href="#DejaVuSans-30" transform="translate(63.623047 0)"/>
       <use xlink:href="#DejaVuSans-30" transform="translate(127.246094 0)"/>
       <use xlink:href="#DejaVuSans-30" transform="translate(190.869141 0)"/>
      </g>
     </g>
    </g>
    <g id="ytick_6">
     <g id="line2d_16">
      <g>
       <use xlink:href="#m5379ebd223" x="60.77" y="44.359967" style="stroke: #000000; stroke-width: 0.8"/>
      </g>
     </g>
     <g id="text_17">
      <!-- 2500 -->
      <g transform="translate(28.32 48.159186) scale(0.1 -0.1)">
       <use xlink:href="#DejaVuSans-32"/>
       <use xlink:href="#DejaVuSans-35" transform="translate(63.623047 0)"/>
       <use xlink:href="#DejaVuSans-30" transform="translate(127.246094 0)"/>
       <use xlink:href="#DejaVuSans-30" transform="translate(190.869141 0)"/>
      </g>
     </g>
    </g>
    <g id="text_18">
     <!-- Sentiment Counts -->
     <g transform="translate(21.408438 326.005419) rotate(-90) scale(0.14 -0.14)">
      <defs>
       <path id="DejaVuSans-20" transform="scale(0.015625)"/>
      </defs>
      <use xlink:href="#DejaVuSans-53"/>
      <use xlink:href="#DejaVuSans-65" transform="translate(63.476562 0)"/>
      <use xlink:href="#DejaVuSans-6e" transform="translate(125 0)"/>
      <use xlink:href="#DejaVuSans-74" transform="translate(188.378906 0)"/>
      <use xlink:href="#DejaVuSans-69" transform="translate(227.587891 0)"/>
      <use xlink:href="#DejaVuSans-6d" transform="translate(255.371094 0)"/>
      <use xlink:href="#DejaVuSans-65" transform="translate(352.783203 0)"/>
      <use xlink:href="#DejaVuSans-6e" transform="translate(414.306641 0)"/>
      <use xlink:href="#DejaVuSans-74" transform="translate(477.685547 0)"/>
      <use xlink:href="#DejaVuSans-20" transform="translate(516.894531 0)"/>
      <use xlink:href="#DejaVuSans-43" transform="translate(548.681641 0)"/>
      <use xlink:href="#DejaVuSans-6f" transform="translate(618.505859 0)"/>
      <use xlink:href="#DejaVuSans-75" transform="translate(679.6875 0)"/>
      <use xlink:href="#DejaVuSans-6e" transform="translate(743.066406 0)"/>
      <use xlink:href="#DejaVuSans-74" transform="translate(806.445312 0)"/>
      <use xlink:href="#DejaVuSans-73" transform="translate(845.654297 0)"/>
     </g>
    </g>
   </g>
   <g id="patch_33">
    <path d="M 60.77 484.008026 
L 60.77 42.32 
" style="fill: none; stroke: #000000; stroke-width: 0.8; stroke-linejoin: miter; stroke-linecap: square"/>
   </g>
   <g id="patch_34">
    <path d="M 750.27 484.008026 
L 750.27 42.32 
" style="fill: none; stroke: #000000; stroke-width: 0.8; stroke-linejoin: miter; stroke-linecap: square"/>
   </g>
   <g id="patch_35">
    <path d="M 60.77 484.008026 
L 750.27 484.008026 
" style="fill: none; stroke: #000000; stroke-width: 0.8; stroke-linejoin: miter; stroke-linecap: square"/>
   </g>
   <g id="patch_36">
    <path d="M 60.77 42.32 
L 750.27 42.32 
" style="fill: none; stroke: #000000; stroke-width: 0.8; stroke-linejoin: miter; stroke-linecap: square"/>
   </g>
   <g id="text_19">
    <!-- Sentiment Analysis per Topic -->
    <g transform="translate(290.17 22.32) scale(0.16 -0.16)">
     <defs>
      <path id="DejaVuSans-41" d="M 2188 4044 
L 1331 1722 
L 3047 1722 
L 2188 4044 
z
M 1831 4666 
L 2547 4666 
L 4325 0 
L 3669 0 
L 3244 1197 
L 1141 1197 
L 716 0 
L 50 0 
L 1831 4666 
z
" transform="scale(0.015625)"/>
     </defs>
     <use xlink:href="#DejaVuSans-53"/>
     <use xlink:href="#DejaVuSans-65" transform="translate(63.476562 0)"/>
     <use xlink:href="#DejaVuSans-6e" transform="translate(125 0)"/>
     <use xlink:href="#DejaVuSans-74" transform="translate(188.378906 0)"/>
     <use xlink:href="#DejaVuSans-69" transform="translate(227.587891 0)"/>
     <use xlink:href="#DejaVuSans-6d" transform="translate(255.371094 0)"/>
     <use xlink:href="#DejaVuSans-65" transform="translate(352.783203 0)"/>
     <use xlink:href="#DejaVuSans-6e" transform="translate(414.306641 0)"/>
     <use xlink:href="#DejaVuSans-74" transform="translate(477.685547 0)"/>
     <use xlink:href="#DejaVuSans-20" transform="translate(516.894531 0)"/>
     <use xlink:href="#DejaVuSans-41" transform="translate(548.681641 0)"/>
     <use xlink:href="#DejaVuSans-6e" transform="translate(617.089844 0)"/>
     <use xlink:href="#DejaVuSans-61" transform="translate(680.46875 0)"/>
     <use xlink:href="#DejaVuSans-6c" transform="translate(741.748047 0)"/>
     <use xlink:href="#DejaVuSans-79" transform="translate(769.53125 0)"/>
     <use xlink:href="#DejaVuSans-73" transform="translate(828.710938 0)"/>
     <use xlink:href="#DejaVuSans-69" transform="translate(880.810547 0)"/>
     <use xlink:href="#DejaVuSans-73" transform="translate(908.59375 0)"/>
     <use xlink:href="#DejaVuSans-20" transform="translate(960.693359 0)"/>
     <use xlink:href="#DejaVuSans-70" transform="translate(992.480469 0)"/>
     <use xlink:href="#DejaVuSans-65" transform="translate(1055.957031 0)"/>
     <use xlink:href="#DejaVuSans-72" transform="translate(1117.480469 0)"/>
     <use xlink:href="#DejaVuSans-20" transform="translate(1158.59375 0)"/>
     <use xlink:href="#DejaVuSans-54" transform="translate(1190.380859 0)"/>
     <use xlink:href="#DejaVuSans-6f" transform="translate(1234.464844 0)"/>
     <use xlink:href="#DejaVuSans-70" transform="translate(1295.646484 0)"/>
     <use xlink:href="#DejaVuSans-69" transform="translate(1359.123047 0)"/>
     <use xlink:href="#DejaVuSans-63" transform="translate(1386.90625 0)"/>
    </g>
   </g>
   <g id="legend_1">
    <g id="patch_37">
     <path d="M 758.67 124.310625 
L 850.9275 124.310625 
Q 853.3275 124.310625 853.3275 121.910625 
L 853.3275 50.72 
Q 853.3275 48.32 850.9275 48.32 
L 758.67 48.32 
Q 756.27 48.32 756.27 50.72 
L 756.27 121.910625 
Q 756.27 124.310625 758.67 124.310625 
z
" style="fill: #ffffff; opacity: 0.8; stroke: #cccccc; stroke-linejoin: miter"/>
    </g>
    <g id="text_20">
     <!-- Sentiment -->
     <g transform="translate(768.616406 63.757813) scale(0.14 -0.14)">
      <use xlink:href="#DejaVuSans-53"/>
      <use xlink:href="#DejaVuSans-65" transform="translate(63.476562 0)"/>
      <use xlink:href="#DejaVuSans-6e" transform="translate(125 0)"/>
      <use xlink:href="#DejaVuSans-74" transform="translate(188.378906 0)"/>
      <use xlink:href="#DejaVuSans-69" transform="translate(227.587891 0)"/>
      <use xlink:href="#DejaVuSans-6d" transform="translate(255.371094 0)"/>
      <use xlink:href="#DejaVuSans-65" transform="translate(352.783203 0)"/>
      <use xlink:href="#DejaVuSans-6e" transform="translate(414.306641 0)"/>
      <use xlink:href="#DejaVuSans-74" transform="translate(477.685547 0)"/>
     </g>
    </g>
    <g id="patch_38">
     <path d="M 761.07 81.7875 
L 785.07 81.7875 
L 785.07 73.3875 
L 761.07 73.3875 
z
" style="fill: #fc8d62"/>
    </g>
    <g id="text_21">
     <!-- Negative -->
     <g transform="translate(794.67 81.7875) scale(0.12 -0.12)">
      <defs>
       <path id="DejaVuSans-4e" d="M 628 4666 
L 1478 4666 
L 3547 763 
L 3547 4666 
L 4159 4666 
L 4159 0 
L 3309 0 
L 1241 3903 
L 1241 0 
L 628 0 
L 628 4666 
z
" transform="scale(0.015625)"/>
       <path id="DejaVuSans-76" d="M 191 3500 
L 800 3500 
L 1894 563 
L 2988 3500 
L 3597 3500 
L 2284 0 
L 1503 0 
L 191 3500 
z
" transform="scale(0.015625)"/>
      </defs>
      <use xlink:href="#DejaVuSans-4e"/>
      <use xlink:href="#DejaVuSans-65" transform="translate(74.804688 0)"/>
      <use xlink:href="#DejaVuSans-67" transform="translate(136.328125 0)"/>
      <use xlink:href="#DejaVuSans-61" transform="translate(199.804688 0)"/>
      <use xlink:href="#DejaVuSans-74" transform="translate(261.083984 0)"/>
      <use xlink:href="#DejaVuSans-69" transform="translate(300.292969 0)"/>
      <use xlink:href="#DejaVuSans-76" transform="translate(328.076172 0)"/>
      <use xlink:href="#DejaVuSans-65" transform="translate(387.255859 0)"/>
     </g>
    </g>
    <g id="patch_39">
     <path d="M 761.07 99.40125 
L 785.07 99.40125 
L 785.07 91.00125 
L 761.07 91.00125 
z
" style="fill: #8da0cb"/>
    </g>
    <g id="text_22">
     <!-- Neutral -->
     <g transform="translate(794.67 99.40125) scale(0.12 -0.12)">
      <use xlink:href="#DejaVuSans-4e"/>
      <use xlink:href="#DejaVuSans-65" transform="translate(74.804688 0)"/>
      <use xlink:href="#DejaVuSans-75" transform="translate(136.328125 0)"/>
      <use xlink:href="#DejaVuSans-74" transform="translate(199.707031 0)"/>
      <use xlink:href="#DejaVuSans-72" transform="translate(238.916016 0)"/>
      <use xlink:href="#DejaVuSans-61" transform="translate(280.029297 0)"/>
      <use xlink:href="#DejaVuSans-6c" transform="translate(341.308594 0)"/>
     </g>
    </g>
    <g id="patch_40">
     <path d="M 761.07 117.015 
L 785.07 117.015 
L 785.07 108.615 
L 761.07 108.615 
z
" style="fill: #66c2a5"/>
    </g>
    <g id="text_23">
     <!-- Positive -->
     <g transform="translate(794.67 117.015) scale(0.12 -0.12)">
      <use xlink:href="#DejaVuSans-50"/>
      <use xlink:href="#DejaVuSans-6f" transform="translate(56.677734 0)"/>
      <use xlink:href="#DejaVuSans-73" transform="translate(117.859375 0)"/>
      <use xlink:href="#DejaVuSans-69" transform="translate(169.958984 0)"/>
      <use xlink:href="#DejaVuSans-74" transform="translate(197.742188 0)"/>
      <use xlink:href="#DejaVuSans-69" transform="translate(236.951172 0)"/>
      <use xlink:href="#DejaVuSans-76" transform="translate(264.734375 0)"/>
      <use xlink:href="#DejaVuSans-65" transform="translate(323.914062 0)"/>
     </g>
    </g>
   </g>
  </g>
 </g>
 <defs>
  <clipPath id="pbed30f2e8a">
   <rect x="60.77" y="42.32" width="689.5" height="441.688026"/>
  </clipPath>
 </defs>
</svg>
